<mxfile host="app.diagrams.net" modified="2021-02-05T09:13:51.846Z" agent="5.0 (Windows NT 10.0; Win64; x64) AppleWebKit/537.36 (KHTML, like Gecko) Chrome/88.0.4324.96 Safari/537.36 Edg/88.0.705.56" etag="hR4cc8rdNCbhqkT9LHMP" version="14.2.9" type="github" pages="2">
  <diagram id="84DhbOrUpi2HIsuhRs9H" name="on-prem-cloud">
    <mxGraphModel dx="503" dy="454" grid="0" gridSize="10" guides="1" tooltips="1" connect="1" arrows="1" fold="1" page="1" pageScale="1" pageWidth="850" pageHeight="1100" math="0" shadow="0">
      <root>
        <mxCell id="0" />
        <mxCell id="1" parent="0" />
        <mxCell id="VBvwu-tsEcbkTugQjTlt-14" value="" style="rounded=0;whiteSpace=wrap;html=1;fillColor=none;" vertex="1" parent="1">
          <mxGeometry x="61" y="35.94" width="283" height="353.06" as="geometry" />
        </mxCell>
        <mxCell id="VBvwu-tsEcbkTugQjTlt-27" style="edgeStyle=none;rounded=0;orthogonalLoop=1;jettySize=auto;html=1;entryX=0.5;entryY=0;entryDx=0;entryDy=0;startArrow=blockThin;startFill=1;endArrow=blockThin;endFill=1;strokeColor=#4A82BA;fontSize=6;" edge="1" parent="1" source="VBvwu-tsEcbkTugQjTlt-1" target="VBvwu-tsEcbkTugQjTlt-12">
          <mxGeometry relative="1" as="geometry" />
        </mxCell>
        <mxCell id="VBvwu-tsEcbkTugQjTlt-1" value="" style="shape=image;verticalLabelPosition=bottom;verticalAlign=top;imageAspect=0;aspect=fixed;image=data:image/svg+xml,PHN2ZyB4bWxucz0iaHR0cDovL3d3dy53My5vcmcvMjAwMC9zdmciIGlkPSJiNWI2MzhlNS0xZGU3LTQzNzgtOGY1MC03YzM3MzhlNTg3NGMiIHdpZHRoPSIxNyIgaGVpZ2h0PSIxMy4yMjMxNzIxODc4MDUxNzYiIHZpZXdCb3g9IjAuNTAwMDAwMDU5NjA0NjQ0OCAyLjM4NjY2ODQ0MzY3OTgwOTYgMTcgMTMuMjIzMTcyMTg3ODA1MTc2Ij48ZGVmcz48bGluZWFyR3JhZGllbnQgaWQ9ImUyMGFlNGNhLTgxMjgtNDYyNS1iY2M2LTg2M2JjMWJjNTFkOSIgeDE9IjUuMDUiIHkxPSIxMC41NSIgeDI9IjUuMDUiIHkyPSIxMy40OCIgZ3JhZGllbnRVbml0cz0idXNlclNwYWNlT25Vc2UiPjxzdG9wIG9mZnNldD0iMCIgc3RvcC1jb2xvcj0iIzc2YmMyZCIvPjxzdG9wIG9mZnNldD0iMSIgc3RvcC1jb2xvcj0iIzVlOTYyNCIvPjwvbGluZWFyR3JhZGllbnQ+PGxpbmVhckdyYWRpZW50IGlkPSJiNmZhODlkZS0yOWViLTQ2MmUtOTdkZS01YmRiZGFlYjA5MGUiIHgxPSIxMi44NCIgeTE9IjEwLjU3IiB4Mj0iMTIuODQiIHkyPSIxMy41IiBncmFkaWVudFVuaXRzPSJ1c2VyU3BhY2VPblVzZSI+PHN0b3Agb2Zmc2V0PSIwIiBzdG9wLWNvbG9yPSIjNzZiYzJkIi8+PHN0b3Agb2Zmc2V0PSIxIiBzdG9wLWNvbG9yPSIjNWU5NjI0Ii8+PC9saW5lYXJHcmFkaWVudD48L2RlZnM+PHRpdGxlPkljb24taW50ZWdyYXRpb24tMjA0PC90aXRsZT48Zz48cGF0aCBkPSJNMy4xOSwxNS42YTIuNDksMi40OSwwLDAsMS0xLjUzLS4zOCwxLjcsMS43LDAsMCwxLS40NS0xLjM2VjEwLjMzYzAtLjU4LS4yMy0uODktLjcxLS44OVY4LjU2Yy40OCwwLC43MS0uMzEuNzEtLjkyVjQuMTdhMS43OSwxLjc5LDAsMCwxLC40NS0xLjM5QTIuMjksMi4yOSwwLDAsMSwzLjE5LDIuNHYuODljLS41MSwwLS43OS4yNy0uNzkuODV2My40YzAsLjc4LS4yMywxLjI2LS43NCwxLjQ2YTEuNDIsMS40MiwwLDAsMSwuNzQsMS40NnYzLjM3YTEuMjUsMS4yNSwwLDAsMCwuMTcuNjguNzQuNzQsMCwwLDAsLjU4LjJsMCwuODlaIiBmaWxsPSIjOTQ5NDk0Ii8+PHBhdGggZD0iTTE0LjgxLDIuNGEyLjQ5LDIuNDksMCwwLDEsMS41My4zOCwxLjcsMS43LDAsMCwxLC40NSwxLjM2VjcuNjdjMCwuNTguMjMuODkuNzEuODl2Ljg4Yy0uNDgsMC0uNzEuMzEtLjcxLjkydjMuNDNhMS44LDEuOCwwLDAsMS0uNDUsMS40LDIuMjgsMi4yOCwwLDAsMS0xLjUzLjQxdi0uODljLjUxLDAsLjc5LS4yNy43OS0uODV2LTMuNGMwLS43OC4yMy0xLjI2Ljc0LTEuNDZhMS40MiwxLjQyLDAsMCwxLS43NC0xLjQ2VjQuMTdhMS4yNSwxLjI1LDAsMCwwLS4xNy0uNjguNzQuNzQsMCwwLDAtLjU4LS4yWiIgZmlsbD0iIzk0OTQ5NCIvPjxwYXRoIGQ9Ik05LjQxLDguMzVWNy4wOGgtLjlWOC4zNWEuMTguMTgsMCwwLDEtLjE4LjE4SDVhLjM2LjM2LDAsMCwwLS4zNi4zNnYxLjY1aC45VjkuNjNhLjE4LjE4LDAsMCwxLC4xNy0uMThoNi41NGEuMTguMTgsMCwwLDEsLjE4LjE4di45M2guODlWOC44OWEuMzYuMzYsMCwwLDAtLjM1LS4zNkg5LjU5QS4xOC4xOCwwLDAsMSw5LjQxLDguMzVaIiBmaWxsPSIjMDA1YmExIi8+PHBhdGggZD0iTTEwLjYxLDMuMjFINy4yNWEuMzguMzgsMCwwLDAtLjM4LjM3VjYuOTRhLjM3LjM3LDAsMCwwLC4zOC4zN2gzLjM2QS4zNy4zNywwLDAsMCwxMSw2Ljk0VjMuNThBLjM4LjM4LDAsMCwwLDEwLjYxLDMuMjFabS0uMzIsMy4xN2EuMjUuMjUsMCwwLDEtLjI1LjI0SDcuODFhLjI1LjI1LDAsMCwxLS4yNS0uMjRWNC4xNWEuMjUuMjUsMCwwLDEsLjI1LS4yNUgxMGEuMjUuMjUsMCwwLDEsLjI1LjI1WiIgZmlsbD0iIzAwNzhkNCIvPjxyZWN0IHg9IjMuNTgiIHk9IjEwLjU1IiB3aWR0aD0iMi45NCIgaGVpZ2h0PSIyLjk0IiByeD0iMC4yNyIgZmlsbD0idXJsKCNlMjBhZTRjYS04MTI4LTQ2MjUtYmNjNi04NjNiYzFiYzUxZDkpIi8+PHJlY3QgeD0iMTEuMzgiIHk9IjEwLjU3IiB3aWR0aD0iMi45NCIgaGVpZ2h0PSIyLjk0IiByeD0iMC4yNyIgZmlsbD0idXJsKCNiNmZhODlkZS0yOWViLTQ2MmUtOTdkZS01YmRiZGFlYjA5MGUpIi8+PC9nPjwvc3ZnPg==" vertex="1" parent="1">
          <mxGeometry x="225" y="48" width="40" height="30.59" as="geometry" />
        </mxCell>
        <mxCell id="VBvwu-tsEcbkTugQjTlt-10" value="" style="shape=image;verticalLabelPosition=bottom;verticalAlign=top;imageAspect=0;aspect=fixed;image=data:image/svg+xml,PHN2ZyB4bWxucz0iaHR0cDovL3d3dy53My5vcmcvMjAwMC9zdmciIGlkPSJiMjI2NzhmMi02MDRkLTQ3YmMtYjQxOS0xMTZiOTYxZTBkMDciIHdpZHRoPSIxNy40NjU1MzgwMjQ5MDIzNDQiIGhlaWdodD0iMTcuNDY1NTM4MDI0OTAyMzQ0IiB2aWV3Qm94PSIwLjI1ODA4MjEyMTYxMDY0MTUgMC4yNjcyMzExMzY1NjA0NDAwNiAxNy40NjU1MzgwMjQ5MDIzNDQgMTcuNDY1NTM4MDI0OTAyMzQ0Ij48ZGVmcz48bGluZWFyR3JhZGllbnQgaWQ9ImIxYTQ5N2JjLTI4ODYtNGUyMi1iMjMwLTkxOGEzNjQ0NGMzZSIgeDE9IjkiIHkxPSIxNy43OSIgeDI9IjkiIHkyPSIxLjgyIiBncmFkaWVudFRyYW5zZm9ybT0idHJhbnNsYXRlKDkgLTMuNzMpIHJvdGF0ZSg0NSkiIGdyYWRpZW50VW5pdHM9InVzZXJTcGFjZU9uVXNlIj48c3RvcCBvZmZzZXQ9IjAiIHN0b3AtY29sb3I9IiMyNTgyNzciLz48c3RvcCBvZmZzZXQ9IjAuNDIiIHN0b3AtY29sb3I9IiM0OWE0OTgiLz48c3RvcCBvZmZzZXQ9IjAuNzgiIHN0b3AtY29sb3I9IiM2MGJhYWQiLz48c3RvcCBvZmZzZXQ9IjEiIHN0b3AtY29sb3I9IiM2OGMyYjUiLz48L2xpbmVhckdyYWRpZW50PjwvZGVmcz48dGl0bGU+SWNvbi1uZXR3b3JraW5nLTc3PC90aXRsZT48cmVjdCB4PSIyLjgyIiB5PSIyLjgyIiB3aWR0aD0iMTIuMzUiIGhlaWdodD0iMTIuMzUiIHJ4PSIwLjU3IiB0cmFuc2Zvcm09InRyYW5zbGF0ZSgtMy43MyA5KSByb3RhdGUoLTQ1KSIgZmlsbD0idXJsKCNiMWE0OTdiYy0yODg2LTRlMjItYjIzMC05MThhMzY0NDRjM2UpIi8+PHBhdGggZD0iTTcuMDUsNC42OCw4LjkzLDIuOGEuMS4xLDAsMCwxLC4xNCwwTDExLDQuNjhhLjA5LjA5LDAsMCwxLS4wNy4xNkg5Ljc4YS4xLjEsMCwwLDAtLjEuMVY3LjM3YS4wOS4wOSwwLDAsMS0uMDkuMDlIOC40MmEuMDkuMDksMCwwLDEtLjEtLjA5VjQuOTRhLjEuMSwwLDAsMC0uMDktLjFINy4xMkEuMS4xLDAsMCwxLDcuMDUsNC42OFpNMTEsMTMuMzIsOS4wNywxNS4yYS4xLjEsMCwwLDEtLjE0LDBMNy4wNSwxMy4zMmEuMS4xLDAsMCwxLC4wNy0uMTZIOC4yM2EuMS4xLDAsMCwwLC4wOS0uMVYxMC42M2EuMDkuMDksMCwwLDEsLjEtLjA5SDkuNTlhLjA5LjA5LDAsMCwxLC4wOS4wOXYyLjQzYS4xLjEsMCwwLDAsLjEuMWgxLjFBLjA5LjA5LDAsMCwxLDExLDEzLjMyWk01LjM0LDEwLjg0VjkuNzRhLjExLjExLDAsMCwwLS4xLS4xSDIuODFhLjEuMSwwLDAsMS0uMS0uMDlWOC4zOGEuMTEuMTEsMCwwLDEsLjEtLjFINS4yNGEuMS4xLDAsMCwwLC4xLS4wOVY3LjA4QS4wOS4wOSwwLDAsMSw1LjUsN0w3LjM4LDguOWEuMDkuMDksMCwwLDEsMCwuMTNMNS41LDEwLjkxQS4wOS4wOSwwLDAsMSw1LjM0LDEwLjg0Wm03LjMyLTMuNzZWOC4xOWEuMS4xLDAsMCwwLC4xLjA5aDIuNDNhLjExLjExLDAsMCwxLC4xLjFWOS41NWEuMS4xLDAsMCwxLS4xLjA5SDEyLjc2YS4xMS4xMSwwLDAsMC0uMS4xdjEuMWEuMDkuMDksMCwwLDEtLjE2LjA3TDEwLjYyLDlhLjA5LjA5LDAsMCwxLDAtLjEzTDEyLjUsN0EuMDkuMDksMCwwLDEsMTIuNjYsNy4wOFoiIGZpbGw9IiNmZmYiLz48L3N2Zz4=" vertex="1" parent="1">
          <mxGeometry x="225" y="262.5" width="40" height="40" as="geometry" />
        </mxCell>
        <mxCell id="VBvwu-tsEcbkTugQjTlt-29" style="edgeStyle=none;rounded=0;orthogonalLoop=1;jettySize=auto;html=1;exitX=0.5;exitY=1;exitDx=0;exitDy=0;entryX=0.5;entryY=0;entryDx=0;entryDy=0;startArrow=blockThin;startFill=1;endArrow=blockThin;endFill=1;strokeColor=#4A82BA;fontSize=6;" edge="1" parent="1" source="VBvwu-tsEcbkTugQjTlt-11" target="VBvwu-tsEcbkTugQjTlt-10">
          <mxGeometry relative="1" as="geometry" />
        </mxCell>
        <mxCell id="VBvwu-tsEcbkTugQjTlt-11" value="" style="shape=image;verticalLabelPosition=bottom;verticalAlign=top;imageAspect=0;aspect=fixed;image=data:image/svg+xml,PHN2ZyB4bWxucz0iaHR0cDovL3d3dy53My5vcmcvMjAwMC9zdmciIHdpZHRoPSIxNy4wMTE1NTY2MjUzNjYyMSIgaGVpZ2h0PSIxNS4xNTAwMDA1NzIyMDQ1OSIgdmlld0JveD0iMC41Nzg0NDM2NDY0MzA5NjkyIDEuMjY5OTk5MjY1NjcwNzc2NCAxNy4wMTE1NTY2MjUzNjYyMSAxNS4xNTAwMDA1NzIyMDQ1OSI+PGRlZnM+PGxpbmVhckdyYWRpZW50IGlkPSJiYzc0OWU1Yi1kOTJlLTQxMDgtYmQwMy05NDI5MmQzMTliYWQiIHgxPSI2LjExIiB5MT0iMTIuNSIgeDI9IjYuMTEiIHkyPSI5LjQyIiBncmFkaWVudFVuaXRzPSJ1c2VyU3BhY2VPblVzZSI+PHN0b3Agb2Zmc2V0PSIwIiBzdG9wLWNvbG9yPSIjNmY0YmIyIi8+PHN0b3Agb2Zmc2V0PSIxIiBzdG9wLWNvbG9yPSIjYzY5YWViIi8+PC9saW5lYXJHcmFkaWVudD48bGluZWFyR3JhZGllbnQgaWQ9ImE2YzBkOWQ2LTRkZGItNDJiYi1hNGUxLTA5MzZiM2UwZDViZCIgeDE9IjEyLjA2IiB5MT0iMTIuNSIgeDI9IjEyLjA2IiB5Mj0iOS40MiIgZ3JhZGllbnRVbml0cz0idXNlclNwYWNlT25Vc2UiPjxzdG9wIG9mZnNldD0iMCIgc3RvcC1jb2xvcj0iIzZmNGJiMiIvPjxzdG9wIG9mZnNldD0iMSIgc3RvcC1jb2xvcj0iI2M2OWFlYiIvPjwvbGluZWFyR3JhZGllbnQ+PC9kZWZzPjx0aXRsZT5JY29uLWludGVncmF0aW9uLTIwOTwvdGl0bGU+PGc+PGcgaWQ9ImE2NDgwOTVlLTczMDItNGUyNy1hMjM1LTZhMjFiYzMzY2Q4ZSI+PHBvbHlnb24gcG9pbnRzPSIxMi4zOCAxMC43OSA5LjQgNi4wMSA5LjEzIDYuMTggOC44NyA2LjAxIDUuODggMTAuNzkgNi40OSAxMS4xNiA5LjEzIDYuOTMgMTEuNzggMTEuMTcgMTIuMzggMTAuNzkiIGZpbGw9IiM5NDk0OTQiLz48Y2lyY2xlIGlkPSJiYTM3OWM2Ny0yYjE4LTRjYTktOTQ5ZS0xMzUzNjBjNjc5MWIiIGN4PSI5LjA4IiBjeT0iNi4yMSIgcj0iMS41NCIgZmlsbD0iIzg2ZDYzMyIvPjxjaXJjbGUgaWQ9ImY5ZmM4Mjc1LTBjNzMtNDMwYi1hYTRkLWZhNTljOGEzZDE3NCIgY3g9IjYuMTEiIGN5PSIxMC45NiIgcj0iMS41NCIgZmlsbD0idXJsKCNiYzc0OWU1Yi1kOTJlLTQxMDgtYmQwMy05NDI5MmQzMTliYWQpIi8+PGNpcmNsZSBpZD0iYmNkNmJjZmItZjQ3NS00ODdkLWEyNmQtZWVkZDRjZWFkNzYzIiBjeD0iMTIuMDYiIGN5PSIxMC45NiIgcj0iMS41NCIgZmlsbD0idXJsKCNhNmMwZDlkNi00ZGRiLTQyYmItYTRlMS0wOTM2YjNlMGQ1YmQpIi8+PGc+PHBhdGggZD0iTTEuMTUsMS4yN0gyLjQ0YTAsMCwwLDAsMSwwLDB2My42YS4yOS4yOSwwLDAsMS0uMjkuMjlILjg3YS4yOS4yOSwwLDAsMS0uMjktLjI5di0zQS41Ny41NywwLDAsMSwxLjE1LDEuMjdaIiBmaWxsPSIjOTk5Ii8+PHBhdGggZD0iTTEuMTUsMS4yN0gyLjQ0YTAsMCwwLDAsMSwwLDB2My42YS4yOS4yOSwwLDAsMS0uMjkuMjlILjg3YS4yOS4yOSwwLDAsMS0uMjktLjI5di0zQS41Ny41NywwLDAsMSwxLjE1LDEuMjdaIiBmaWxsPSIjOTk5IiBvcGFjaXR5PSIwLjUiLz48L2c+PGc+PHBhdGggZD0iTTE1LjcyLDEuMjdIMTdhLjU3LjU3LDAsMCwxLC41Ny41N3YzYS4yOS4yOSwwLDAsMS0uMjkuMjlIMTZhLjI5LjI5LDAsMCwxLS4yOS0uMjlWMS4yN0EwLDAsMCwwLDEsMTUuNzIsMS4yN1oiIGZpbGw9IiM5OTkiLz48cGF0aCBkPSJNMTUuNzIsMS4yN0gxN2EuNTcuNTcsMCwwLDEsLjU3LjU3djNhLjI5LjI5LDAsMCwxLS4yOS4yOUgxNmEuMjkuMjksMCwwLDEtLjI5LS4yOVYxLjI3QTAsMCwwLDAsMSwxNS43MiwxLjI3WiIgZmlsbD0iIzk5OSIgb3BhY2l0eT0iMC41Ii8+PC9nPjxwYXRoIGQ9Ik04Ljc0LTYuMzJIMTBhMCwwLDAsMCwxLDAsMHYxN2EwLDAsMCwwLDEsMCwwSDguNzRhLjU3LjU3LDAsMCwxLS41Ny0uNTdWLTUuNzVBLjU3LjU3LDAsMCwxLDguNzQtNi4zMloiIHRyYW5zZm9ybT0idHJhbnNsYXRlKDExLjI2IC02LjkpIHJvdGF0ZSg5MCkiIGZpbGw9IiM5NDk0OTQiLz48Zz48cGF0aCBkPSJNLjg3LDEyLjUySDIuMTZhLjI5LjI5LDAsMCwxLC4yOS4yOXYzLjZhMCwwLDAsMCwxLDAsMEgxLjE1YS41Ny41NywwLDAsMS0uNTctLjU3di0zQS4yOS4yOSwwLDAsMSwuODcsMTIuNTJaIiBmaWxsPSIjOTk5Ii8+PHBhdGggZD0iTS44NywxMi41MkgyLjE2YS4yOS4yOSwwLDAsMSwuMjkuMjl2My42YTAsMCwwLDAsMSwwLDBIMS4xNWEuNTcuNTcsMCwwLDEtLjU3LS41N3YtM0EuMjkuMjksMCwwLDEsLjg3LDEyLjUyWiIgZmlsbD0iIzk5OSIgb3BhY2l0eT0iMC41Ii8+PC9nPjxnPjxwYXRoIGQ9Ik0xNiwxMi41MkgxNy4zYS4yOS4yOSwwLDAsMSwuMjkuMjl2M2EuNTcuNTcsMCwwLDEtLjU3LjU3SDE1LjcyYTAsMCwwLDAsMSwwLDB2LTMuNkEuMjkuMjksMCwwLDEsMTYsMTIuNTJaIiBmaWxsPSIjOTk5Ii8+PHBhdGggZD0iTTE2LDEyLjUySDE3LjNhLjI5LjI5LDAsMCwxLC4yOS4yOXYzYS41Ny41NywwLDAsMS0uNTcuNTdIMTUuNzJhMCwwLDAsMCwxLDAsMHYtMy42QS4yOS4yOSwwLDAsMSwxNiwxMi41MloiIGZpbGw9IiM5OTkiIG9wYWNpdHk9IjAuNSIvPjwvZz48cGF0aCBkPSJNOC43NCw3SDEwYTAsMCwwLDAsMSwwLDBWMjRhMCwwLDAsMCwxLDAsMEg4Ljc0YS41Ny41NywwLDAsMS0uNTctLjU3VjcuNTdBLjU3LjU3LDAsMCwxLDguNzQsN1oiIHRyYW5zZm9ybT0idHJhbnNsYXRlKC02LjQyIDI0LjU5KSByb3RhdGUoLTkwKSIgZmlsbD0iIzk0OTQ5NCIvPjwvZz48L2c+PC9zdmc+" vertex="1" parent="1">
          <mxGeometry x="225" y="191.5" width="40" height="35.29" as="geometry" />
        </mxCell>
        <mxCell id="VBvwu-tsEcbkTugQjTlt-28" style="edgeStyle=none;rounded=0;orthogonalLoop=1;jettySize=auto;html=1;exitX=0.5;exitY=1;exitDx=0;exitDy=0;entryX=0.5;entryY=0;entryDx=0;entryDy=0;startArrow=blockThin;startFill=1;endArrow=blockThin;endFill=1;strokeColor=#4A82BA;fontSize=6;" edge="1" parent="1" source="VBvwu-tsEcbkTugQjTlt-12" target="VBvwu-tsEcbkTugQjTlt-11">
          <mxGeometry relative="1" as="geometry" />
        </mxCell>
        <mxCell id="VBvwu-tsEcbkTugQjTlt-12" value="" style="shape=image;verticalLabelPosition=bottom;verticalAlign=top;imageAspect=0;aspect=fixed;image=data:image/svg+xml,PHN2ZyB4bWxucz0iaHR0cDovL3d3dy53My5vcmcvMjAwMC9zdmciIGlkPSJhZmNjMzc4My03Mzc4LTQ0OTctYmYxNS03MmMyMDYzM2JmMjEiIHdpZHRoPSIxOCIgaGVpZ2h0PSIxMy4wNzUzNjY5NzM4NzY5NTMiIHZpZXdCb3g9IjAgMS41NDg3ODI4MjU0Njk5NzA3IDE4IDEzLjA3NTM2Njk3Mzg3Njk1MyI+PGRlZnM+PGxpbmVhckdyYWRpZW50IGlkPSJiODJkYTExOC05OTNkLTRjMzktODAzYy1jMzY2NzVkMzVlYmYiIHgxPSI4Ljk5IiB5MT0iMTYuNjEiIHgyPSI4Ljk5IiB5Mj0iLTEuMjciIGdyYWRpZW50VW5pdHM9InVzZXJTcGFjZU9uVXNlIj48c3RvcCBvZmZzZXQ9IjAiIHN0b3AtY29sb3I9IiMwMDc4ZDQiLz48c3RvcCBvZmZzZXQ9IjAuMTYiIHN0b3AtY29sb3I9IiMxMzgwZGEiLz48c3RvcCBvZmZzZXQ9IjAuNTMiIHN0b3AtY29sb3I9IiMzYzkxZTUiLz48c3RvcCBvZmZzZXQ9IjAuODIiIHN0b3AtY29sb3I9IiM1NTljZWMiLz48c3RvcCBvZmZzZXQ9IjEiIHN0b3AtY29sb3I9IiM1ZWEwZWYiLz48L2xpbmVhckdyYWRpZW50PjwvZGVmcz48dGl0bGU+SWNvbi1jb21wdXRlLTMwPC90aXRsZT48cGF0aCBkPSJNMTgsMTAuNTVhNC4xMSw0LjExLDAsMCwwLTMuNTEtNCw1LjE0LDUuMTQsMCwwLDAtNS4yNS01LDUuMjYsNS4yNiwwLDAsMC01LDMuNDdBNC44Nyw0Ljg3LDAsMCwwLDAsOS44MmE0Ljk0LDQuOTQsMCwwLDAsNS4wNyw0LjhsLjQ0LDBoOC4yMWExLjQ2LDEuNDYsMCwwLDAsLjIyLDBBNC4xMyw0LjEzLDAsMCwwLDE4LDEwLjU1WiIgZmlsbD0idXJsKCNiODJkYTExOC05OTNkLTRjMzktODAzYy1jMzY2NzVkMzVlYmYpIi8+PGNpcmNsZSBjeD0iNS4yNCIgY3k9IjkuNjUiIHI9IjAuNzEiIGZpbGw9IiNlM2UzZTMiLz48cGF0aCBkPSJNNy43NCw5LjkyVjkuMzVsLS4wOCwwLS42MS0uMi0uMTYtLjM5LjMxLS42Ni0uNC0uNC0uMDgsMEw2LjE1LDhsLS4zOS0uMTYtLjI1LS42OUg0Ljk0bDAsLjA4LS4yLjYxTDQuMzIsOGwtLjY1LS4zMS0uNC40LDAsLjA4LjI5LjU3LS4xNi4zOS0uNy4yNVYxMGwuMDgsMCwuNjEuMi4xNi4zOS0uMzEuNjYuNC40LjA4LDAsLjU3LS4yOS4zOS4xNi4yNS42OWguNTdsMC0uMDguMi0uNjEuMzktLjE2LjY2LjMxLjQtLjQsMC0uMDgtLjI5LS41Ny4xNi0uMzlabS0yLjUuODNhMS4xLDEuMSwwLDEsMSwxLjEtMS4xQTEuMDksMS4wOSwwLDAsMSw1LjI0LDEwLjc1WiIgZmlsbD0iI2ZmZiIvPjxjaXJjbGUgY3g9IjEwIiBjeT0iNi41OSIgcj0iMC44NCIgZmlsbD0iI2UzZTNlMyIvPjxwYXRoIGQ9Ik0xMyw2LjkxVjYuMjNsLS4wOSwwTDEyLjE3LDYsMTIsNS40OWwuMzctLjgtLjQ4LS40OC0uMDksMC0uNjkuMzUtLjQ2LS4xOS0uMy0uODNIOS42NGwwLC4xLS4yNC43My0uNDcuMTktLjc4LS4zNy0uNDguNDguMDUuMDlMOCw1LjUsNy44NCw2LDcsNi4yN1Y3bC4xLDAsLjczLjI0TDgsNy42OWwtLjM3LjhMOC4xMyw5bC4xLS4wNS42OC0uMzUuNDcuMTkuMy44M2guNjhsMC0uMS4yNC0uNzMuNDctLjE5Ljc5LjM3LjQ4LS40OC0uMDUtLjA5TDEyLDcuNjhsLjE5LS40N1ptLTMsMWExLjMyLDEuMzIsMCwxLDEsMS4zMi0xLjMyQTEuMzEsMS4zMSwwLDAsMSwxMCw3LjkxWiIgZmlsbD0iI2ZmZiIvPjwvc3ZnPg==" vertex="1" parent="1">
          <mxGeometry x="225" y="121.5" width="40" height="28.89" as="geometry" />
        </mxCell>
        <mxCell id="VBvwu-tsEcbkTugQjTlt-13" value="" style="endArrow=none;dashed=1;html=1;" edge="1" parent="1">
          <mxGeometry width="50" height="50" relative="1" as="geometry">
            <mxPoint x="66" y="245.5" as="sourcePoint" />
            <mxPoint x="337" y="245.5" as="targetPoint" />
          </mxGeometry>
        </mxCell>
        <mxCell id="VBvwu-tsEcbkTugQjTlt-15" value="Logic Apps" style="text;html=1;resizable=0;autosize=1;align=left;verticalAlign=middle;points=[];fillColor=none;strokeColor=none;rounded=0;fontSize=10;" vertex="1" parent="1">
          <mxGeometry x="79" y="55.3" width="59" height="16" as="geometry" />
        </mxCell>
        <mxCell id="VBvwu-tsEcbkTugQjTlt-16" value="Gateway&lt;br style=&quot;font-size: 10px;&quot;&gt;Cloud&lt;br style=&quot;font-size: 10px;&quot;&gt;Service" style="text;html=1;resizable=0;autosize=1;align=left;verticalAlign=middle;points=[];fillColor=none;strokeColor=none;rounded=0;fontSize=10;" vertex="1" parent="1">
          <mxGeometry x="79" y="115.94" width="49" height="40" as="geometry" />
        </mxCell>
        <mxCell id="VBvwu-tsEcbkTugQjTlt-17" value="Azure Service Bus &lt;br style=&quot;font-size: 10px;&quot;&gt;Relay" style="text;html=1;resizable=0;autosize=1;align=left;verticalAlign=middle;points=[];fillColor=none;strokeColor=none;rounded=0;fontSize=10;" vertex="1" parent="1">
          <mxGeometry x="79" y="195.15" width="92" height="28" as="geometry" />
        </mxCell>
        <mxCell id="VBvwu-tsEcbkTugQjTlt-18" value="Gateway" style="text;html=1;resizable=0;autosize=1;align=left;verticalAlign=middle;points=[];fillColor=none;strokeColor=none;rounded=0;fontSize=10;" vertex="1" parent="1">
          <mxGeometry x="79" y="274.5" width="49" height="16" as="geometry" />
        </mxCell>
        <mxCell id="VBvwu-tsEcbkTugQjTlt-19" value="Data &amp;amp; LoB&lt;br style=&quot;font-size: 10px;&quot;&gt;Systems" style="text;html=1;resizable=0;autosize=1;align=left;verticalAlign=middle;points=[];fillColor=none;strokeColor=none;rounded=0;fontSize=10;" vertex="1" parent="1">
          <mxGeometry x="79" y="341.5" width="61" height="28" as="geometry" />
        </mxCell>
        <mxCell id="VBvwu-tsEcbkTugQjTlt-24" style="edgeStyle=none;rounded=0;orthogonalLoop=1;jettySize=auto;html=1;fontSize=6;endArrow=blockThin;endFill=1;startArrow=blockThin;startFill=1;strokeColor=#4A82BA;" edge="1" parent="1" source="VBvwu-tsEcbkTugQjTlt-21" target="VBvwu-tsEcbkTugQjTlt-10">
          <mxGeometry relative="1" as="geometry" />
        </mxCell>
        <mxCell id="VBvwu-tsEcbkTugQjTlt-26" value="" style="group" vertex="1" connectable="0" parent="1">
          <mxGeometry x="175" y="335.5" width="140" height="40" as="geometry" />
        </mxCell>
        <mxCell id="VBvwu-tsEcbkTugQjTlt-8" value="" style="aspect=fixed;html=1;points=[];align=center;image;fontSize=12;image=img/lib/mscae/SAP_HANA_on_Azure.svg;" vertex="1" parent="VBvwu-tsEcbkTugQjTlt-26">
          <mxGeometry x="100" y="3.8500000000000227" width="40" height="20" as="geometry" />
        </mxCell>
        <mxCell id="VBvwu-tsEcbkTugQjTlt-22" value="" style="pointerEvents=1;shadow=0;dashed=0;html=1;strokeColor=none;fillColor=#505050;labelPosition=center;verticalLabelPosition=bottom;verticalAlign=top;outlineConnect=0;align=center;shape=mxgraph.office.servers.sql_server;fontSize=8;aspect=fixed;" vertex="1" parent="VBvwu-tsEcbkTugQjTlt-26">
          <mxGeometry width="30.71" height="40" as="geometry" />
        </mxCell>
        <mxCell id="VBvwu-tsEcbkTugQjTlt-21" value="" style="pointerEvents=1;shadow=0;dashed=0;html=1;strokeColor=none;fillColor=#505050;labelPosition=center;verticalLabelPosition=bottom;verticalAlign=top;outlineConnect=0;align=center;shape=mxgraph.office.servers.sharepoint_server;fontSize=8;aspect=fixed;" vertex="1" parent="VBvwu-tsEcbkTugQjTlt-26">
          <mxGeometry x="48" width="40" height="39.29" as="geometry" />
        </mxCell>
        <mxCell id="VBvwu-tsEcbkTugQjTlt-30" value="" style="shape=image;verticalLabelPosition=bottom;verticalAlign=top;imageAspect=0;aspect=fixed;image=data:image/svg+xml,PHN2ZyB4bWxucz0iaHR0cDovL3d3dy53My5vcmcvMjAwMC9zdmciIGlkPSJmNzhlZjM3Yi1mZGU0LTQ2MWMtOTRlMi1kY2NmZjMyZGQ1ZDciIHdpZHRoPSIxNyIgaGVpZ2h0PSIxNS42NTYwNzM1NzAyNTE0NjUiIHZpZXdCb3g9IjAuNSAxLjE3ODkyNzMwMjM2MDUzNDcgMTcgMTUuNjU2MDczNTcwMjUxNDY1Ij48ZGVmcz48bGluZWFyR3JhZGllbnQgaWQ9ImJmOGE5NTgzLWFhZTktNDhmZi04N2Q4LWZiOGY0NGU3ZDZiZCIgeDE9IjkiIHkxPSIxNi44MiIgeDI9IjkiIHkyPSIxLjE4IiBncmFkaWVudFVuaXRzPSJ1c2VyU3BhY2VPblVzZSI+PHN0b3Agb2Zmc2V0PSIwIiBzdG9wLWNvbG9yPSIjMTk4YWIzIi8+PHN0b3Agb2Zmc2V0PSIwLjA5IiBzdG9wLWNvbG9yPSIjMWY5ZGM0Ii8+PHN0b3Agb2Zmc2V0PSIwLjI0IiBzdG9wLWNvbG9yPSIjMjhiNWQ5Ii8+PHN0b3Agb2Zmc2V0PSIwLjQiIHN0b3AtY29sb3I9IiMyZGM2ZTkiLz48c3RvcCBvZmZzZXQ9IjAuNTciIHN0b3AtY29sb3I9IiMzMWQxZjIiLz48c3RvcCBvZmZzZXQ9IjAuNzgiIHN0b3AtY29sb3I9IiMzMmQ0ZjUiLz48L2xpbmVhckdyYWRpZW50PjxsaW5lYXJHcmFkaWVudCBpZD0iZjliMWJiOGMtNzI4ZS00YWJmLWJjZTUtNmMxMWFjMTcwYzViIiB4MT0iOC4zNiIgeTE9IjExLjM1IiB4Mj0iOC4zNiIgeTI9IjE0LjQ2IiBncmFkaWVudFVuaXRzPSJ1c2VyU3BhY2VPblVzZSI+PHN0b3Agb2Zmc2V0PSIwIiBzdG9wLWNvbG9yPSIjYzY5YWViIi8+PHN0b3Agb2Zmc2V0PSIxIiBzdG9wLWNvbG9yPSIjNmY0YmIyIi8+PC9saW5lYXJHcmFkaWVudD48L2RlZnM+PHRpdGxlPkljb24td2ViLTQyPC90aXRsZT48cGF0aCBkPSJNMTQuMTgsNS44OUE0Ljg1LDQuODUsMCwwLDAsOS4yMywxLjE4LDUsNSwwLDAsMCw0LjQ4LDQuNDcsNC42MSw0LjYxLDAsMCwwLC41LDksNC42Nyw0LjY3LDAsMCwwLDUuMjksMTMuNWEzLDMsMCwwLDAsLjQyLDBoMS4yYTEuNDcsMS40NywwLDAsMS0uMTEtLjU2djBBMS41MSwxLjUxLDAsMCwxLDcsMTIuMjFINS42bC0uMzEsMEEzLjQxLDMuNDEsMCwwLDEsMS43Nyw5LDMuMzMsMy4zMywwLDAsMSw0LjY4LDUuNzNsLjc2LS4xMi4yNS0uNzNBMy43MywzLjczLDAsMCwxLDkuMjMsMi40NSwzLjYsMy42LDAsMCwxLDEyLjkxLDUuOVY3TDE0LDcuMTVhMi41OSwyLjU5LDAsMCwxLDIuMjYsMi40OSwyLjYzLDIuNjMsMCwwLDEtMi42MiwyLjU0aC0uMTVsLS4wOCwwaC0xQTMuOTIsMy45MiwwLDAsMCw4LjU0LDlhLjY0LjY0LDAsMSwwLDAsMS4yNywyLjY1LDIuNjUsMCwwLDEsMCw1LjI5LjY0LjY0LDAsMSwwLDAsMS4yNywzLjkyLDMuOTIsMCwwLDAsMy44Ny0zLjM0aDEuMDVhLjY0LjY0LDAsMCwwLC4yLDBBMy45MSwzLjkxLDAsMCwwLDE3LjUsOS42NCwzLjg2LDMuODYsMCwwLDAsMTQuMTgsNS44OVoiIGZpbGw9InVybCgjYmY4YTk1ODMtYWFlOS00OGZmLTg3ZDgtZmI4ZjQ0ZTdkNmJkKSIvPjxyZWN0IHg9IjYuOCIgeT0iMTEuMzUiIHdpZHRoPSIzLjEyIiBoZWlnaHQ9IjMuMTIiIHJ4PSIxLjU0IiBmaWxsPSJ1cmwoI2Y5YjFiYjhjLTcyOGUtNGFiZi1iY2U1LTZjMTFhYzE3MGM1YikiLz48L3N2Zz4=" vertex="1" parent="1">
          <mxGeometry x="476" y="106" width="40" height="37.65" as="geometry" />
        </mxCell>
        <mxCell id="VBvwu-tsEcbkTugQjTlt-31" value="" style="shape=image;verticalLabelPosition=bottom;verticalAlign=top;imageAspect=0;aspect=fixed;image=data:image/svg+xml,PHN2ZyB4bWxucz0iaHR0cDovL3d3dy53My5vcmcvMjAwMC9zdmciIGlkPSJmNzhlZjM3Yi1mZGU0LTQ2MWMtOTRlMi1kY2NmZjMyZGQ1ZDciIHdpZHRoPSIxNyIgaGVpZ2h0PSIxNS42NTYwNzM1NzAyNTE0NjUiIHZpZXdCb3g9IjAuNSAxLjE3ODkyNzMwMjM2MDUzNDcgMTcgMTUuNjU2MDczNTcwMjUxNDY1Ij48ZGVmcz48bGluZWFyR3JhZGllbnQgaWQ9ImJmOGE5NTgzLWFhZTktNDhmZi04N2Q4LWZiOGY0NGU3ZDZiZCIgeDE9IjkiIHkxPSIxNi44MiIgeDI9IjkiIHkyPSIxLjE4IiBncmFkaWVudFVuaXRzPSJ1c2VyU3BhY2VPblVzZSI+PHN0b3Agb2Zmc2V0PSIwIiBzdG9wLWNvbG9yPSIjMTk4YWIzIi8+PHN0b3Agb2Zmc2V0PSIwLjA5IiBzdG9wLWNvbG9yPSIjMWY5ZGM0Ii8+PHN0b3Agb2Zmc2V0PSIwLjI0IiBzdG9wLWNvbG9yPSIjMjhiNWQ5Ii8+PHN0b3Agb2Zmc2V0PSIwLjQiIHN0b3AtY29sb3I9IiMyZGM2ZTkiLz48c3RvcCBvZmZzZXQ9IjAuNTciIHN0b3AtY29sb3I9IiMzMWQxZjIiLz48c3RvcCBvZmZzZXQ9IjAuNzgiIHN0b3AtY29sb3I9IiMzMmQ0ZjUiLz48L2xpbmVhckdyYWRpZW50PjxsaW5lYXJHcmFkaWVudCBpZD0iZjliMWJiOGMtNzI4ZS00YWJmLWJjZTUtNmMxMWFjMTcwYzViIiB4MT0iOC4zNiIgeTE9IjExLjM1IiB4Mj0iOC4zNiIgeTI9IjE0LjQ2IiBncmFkaWVudFVuaXRzPSJ1c2VyU3BhY2VPblVzZSI+PHN0b3Agb2Zmc2V0PSIwIiBzdG9wLWNvbG9yPSIjYzY5YWViIi8+PHN0b3Agb2Zmc2V0PSIxIiBzdG9wLWNvbG9yPSIjNmY0YmIyIi8+PC9saW5lYXJHcmFkaWVudD48L2RlZnM+PHRpdGxlPkljb24td2ViLTQyPC90aXRsZT48cGF0aCBkPSJNMTQuMTgsNS44OUE0Ljg1LDQuODUsMCwwLDAsOS4yMywxLjE4LDUsNSwwLDAsMCw0LjQ4LDQuNDcsNC42MSw0LjYxLDAsMCwwLC41LDksNC42Nyw0LjY3LDAsMCwwLDUuMjksMTMuNWEzLDMsMCwwLDAsLjQyLDBoMS4yYTEuNDcsMS40NywwLDAsMS0uMTEtLjU2djBBMS41MSwxLjUxLDAsMCwxLDcsMTIuMjFINS42bC0uMzEsMEEzLjQxLDMuNDEsMCwwLDEsMS43Nyw5LDMuMzMsMy4zMywwLDAsMSw0LjY4LDUuNzNsLjc2LS4xMi4yNS0uNzNBMy43MywzLjczLDAsMCwxLDkuMjMsMi40NSwzLjYsMy42LDAsMCwxLDEyLjkxLDUuOVY3TDE0LDcuMTVhMi41OSwyLjU5LDAsMCwxLDIuMjYsMi40OSwyLjYzLDIuNjMsMCwwLDEtMi42MiwyLjU0aC0uMTVsLS4wOCwwaC0xQTMuOTIsMy45MiwwLDAsMCw4LjU0LDlhLjY0LjY0LDAsMSwwLDAsMS4yNywyLjY1LDIuNjUsMCwwLDEsMCw1LjI5LjY0LjY0LDAsMSwwLDAsMS4yNywzLjkyLDMuOTIsMCwwLDAsMy44Ny0zLjM0aDEuMDVhLjY0LjY0LDAsMCwwLC4yLDBBMy45MSwzLjkxLDAsMCwwLDE3LjUsOS42NCwzLjg2LDMuODYsMCwwLDAsMTQuMTgsNS44OVoiIGZpbGw9InVybCgjYmY4YTk1ODMtYWFlOS00OGZmLTg3ZDgtZmI4ZjQ0ZTdkNmJkKSIvPjxyZWN0IHg9IjYuOCIgeT0iMTEuMzUiIHdpZHRoPSIzLjEyIiBoZWlnaHQ9IjMuMTIiIHJ4PSIxLjU0IiBmaWxsPSJ1cmwoI2Y5YjFiYjhjLTcyOGUtNGFiZi1iY2U1LTZjMTFhYzE3MGM1YikiLz48L3N2Zz4=;fillColor=none;fontSize=10;align=left;" vertex="1" parent="1">
          <mxGeometry x="422" y="214" width="40" height="37.65" as="geometry" />
        </mxCell>
        <mxCell id="VBvwu-tsEcbkTugQjTlt-32" value="" style="shape=image;verticalLabelPosition=bottom;verticalAlign=top;imageAspect=0;aspect=fixed;image=data:image/svg+xml,PHN2ZyB4bWxucz0iaHR0cDovL3d3dy53My5vcmcvMjAwMC9zdmciIHdpZHRoPSIxMC43NzcwMDA0MjcyNDYwOTQiIGhlaWdodD0iMTgiIHZpZXdCb3g9IjMuNjExOTk5OTg4NTU1OTA4IDAgMTAuNzc3MDAwNDI3MjQ2MDk0IDE4Ij48ZGVmcz48bGluZWFyR3JhZGllbnQgaWQ9ImI4NjFlY2IxLTY5ZDMtNDBmZi1iMzhhLTQ0M2E0OWEzNzdiMSIgeDE9IjkiIHkxPSIyMi44MSIgeDI9IjkiIHkyPSItMi40OTEiIGdyYWRpZW50VW5pdHM9InVzZXJTcGFjZU9uVXNlIj48c3RvcCBvZmZzZXQ9IjAiIHN0b3AtY29sb3I9IiMwMDc4ZDQiLz48c3RvcCBvZmZzZXQ9IjAuMTY1IiBzdG9wLWNvbG9yPSIjMWM4NGRjIi8+PHN0b3Agb2Zmc2V0PSIwLjM3OCIgc3RvcC1jb2xvcj0iIzM5OTBlNCIvPjxzdG9wIG9mZnNldD0iMC41OSIgc3RvcC1jb2xvcj0iIzRkOTllYSIvPjxzdG9wIG9mZnNldD0iMC43OTkiIHN0b3AtY29sb3I9IiM1YTllZWUiLz48c3RvcCBvZmZzZXQ9IjEiIHN0b3AtY29sb3I9IiM1ZWEwZWYiLz48L2xpbmVhckdyYWRpZW50PjxsaW5lYXJHcmFkaWVudCBpZD0iYjgyOWY4NzctZmI2OC00OWQwLThjYjYtYzEyYTA3YjEwMTg0IiB4MT0iOSIgeTE9IjE1Ljk4MiIgeDI9IjkiIHkyPSIxLjUyMiIgZ3JhZGllbnRVbml0cz0idXNlclNwYWNlT25Vc2UiPjxzdG9wIG9mZnNldD0iMCIgc3RvcC1jb2xvcj0iI2QyZWJmZiIvPjxzdG9wIG9mZnNldD0iMC45OTciIHN0b3AtY29sb3I9IiNmMGZmZmQiLz48L2xpbmVhckdyYWRpZW50PjwvZGVmcz48dGl0bGU+TXNQb3J0YWxGeC5iYXNlLmltYWdlcy02MjwvdGl0bGU+PGcgaWQ9ImFiZjhhNDE3LTQwOTMtNGM2Mi04NzM4LTA0OTNjMTY0ZTVkMyI+PGc+PHJlY3QgeD0iMy42MTIiIHdpZHRoPSIxMC43NzciIGhlaWdodD0iMTgiIHJ4PSIwLjQxOSIgZmlsbD0idXJsKCNiODYxZWNiMS02OWQzLTQwZmYtYjM4YS00NDNhNDlhMzc3YjEpIi8+PHJlY3QgeD0iNy43NTgiIHk9IjAuNjA0IiB3aWR0aD0iMi40ODMiIGhlaWdodD0iMC4zMzMiIHJ4PSIwLjE1NCIgZmlsbD0iI2YyZjJmMiIvPjxyZWN0IHg9IjQuNjIzIiB5PSIxLjUyMiIgd2lkdGg9IjguNzU0IiBoZWlnaHQ9IjE0LjQ2MSIgcng9IjAuMjAxIiBvcGFjaXR5PSIwLjkiIGZpbGw9InVybCgjYjgyOWY4NzctZmI2OC00OWQwLThjYjYtYzEyYTA3YjEwMTg0KSIvPjxyZWN0IHg9IjguMzk4IiB5PSIxNi41OCIgd2lkdGg9IjEuMjA0IiBoZWlnaHQ9IjEuMDI4IiByeD0iMC4yODYiIGZpbGw9IiNmMmYyZjIiLz48cG9seWdvbiBwb2ludHM9IjExLjg4MiA3LjM3OCAxMS44ODIgMTAuNjI0IDkuMDc3IDEyLjI1NSA5LjA3NyA5LjAwNCAxMS44ODIgNy4zNzgiIGZpbGw9IiMwMDViYTEiLz48cG9seWdvbiBwb2ludHM9IjExLjg4MiA3LjM3OCA5LjA3OCA5LjAwOSA2LjI3MiA3LjM3OCA5LjA3OCA1Ljc0NyAxMS44ODIgNy4zNzgiIGZpbGw9IiM1ZWEwZWYiLz48cG9seWdvbiBwb2ludHM9IjkuMDc3IDkuMDA5IDkuMDc3IDEyLjI1NSA2LjI3MiAxMC42MjQgNi4yNzIgNy4zNzggOS4wNzcgOS4wMDkiIGZpbGw9IiMwMDc4ZDQiLz48L2c+PC9nPjwvc3ZnPg==" vertex="1" parent="1">
          <mxGeometry x="434" y="24" width="24.44" height="40" as="geometry" />
        </mxCell>
        <mxCell id="VBvwu-tsEcbkTugQjTlt-33" value="" style="shape=image;verticalLabelPosition=bottom;verticalAlign=top;imageAspect=0;aspect=fixed;image=data:image/svg+xml,PHN2ZyB4bWxucz0iaHR0cDovL3d3dy53My5vcmcvMjAwMC9zdmciIHdpZHRoPSIxNyIgaGVpZ2h0PSIxMy42NjgwMDc4NTA2NDY5NzMiIHZpZXdCb3g9IjAuNSAyLjE2NTk5MjAyMTU2MDY2OSAxNyAxMy42NjgwMDc4NTA2NDY5NzMiPjxkZWZzPjxsaW5lYXJHcmFkaWVudCBpZD0iYjg1ZTJiZjAtM2EyZi00Y2MyLWFlNWYtNjBmZTU4ODFhMmE1IiB4MT0iOSIgeTE9IjE1LjgzNCIgeDI9IjkiIHkyPSI1Ljc4OCIgZ3JhZGllbnRVbml0cz0idXNlclNwYWNlT25Vc2UiPjxzdG9wIG9mZnNldD0iMCIgc3RvcC1jb2xvcj0iIzMyYmVkZCIvPjxzdG9wIG9mZnNldD0iMC4xNzUiIHN0b3AtY29sb3I9IiMzMmNhZWEiLz48c3RvcCBvZmZzZXQ9IjAuNDEiIHN0b3AtY29sb3I9IiMzMmQyZjIiLz48c3RvcCBvZmZzZXQ9IjAuNzc1IiBzdG9wLWNvbG9yPSIjMzJkNGY1Ii8+PC9saW5lYXJHcmFkaWVudD48L2RlZnM+PHRpdGxlPk1zUG9ydGFsRnguYmFzZS5pbWFnZXMtMTU8L3RpdGxlPjxnIGlkPSJlM2UzMTMzMy0zMWY0LTQwZDgtOTg4Ni1kM2ExYzU4ZDc2NzkiPjxnPjxwYXRoIGQ9Ik0uNSw1Ljc4OGgxN2EwLDAsMCwwLDEsMCwwdjkuNDc4YS41NjguNTY4LDAsMCwxLS41NjguNTY4SDEuMDY4QS41NjguNTY4LDAsMCwxLC41LDE1LjI2NlY1Ljc4OEEwLDAsMCwwLDEsLjUsNS43ODhaIiBmaWxsPSJ1cmwoI2I4NWUyYmYwLTNhMmYtNGNjMi1hZTVmLTYwZmU1ODgxYTJhNSkiLz48cGF0aCBkPSJNMS4wNzEsMi4xNjZIMTYuOTI5YS41NjguNTY4LDAsMCwxLC41NjguNTY4VjUuNzg4YTAsMCwwLDAsMSwwLDBILjVhMCwwLDAsMCwxLDAsMFYyLjczNEEuNTY4LjU2OCwwLDAsMSwxLjA3MSwyLjE2NloiIGZpbGw9IiMwMDc4ZDQiLz48cmVjdCB4PSIyLjc4NyIgeT0iMy4yNDgiIHdpZHRoPSIxMi40MjYiIGhlaWdodD0iMS40NTkiIHJ4PSIwLjI4NCIgZmlsbD0iI2YyZjJmMiIvPjwvZz48L2c+PC9zdmc+" vertex="1" parent="1">
          <mxGeometry x="514" y="27.53" width="40" height="32.94" as="geometry" />
        </mxCell>
      </root>
    </mxGraphModel>
  </diagram>
  <diagram id="sCpV1Ybn3r0O83q9c07i" name="enrich">
    <mxGraphModel dx="733" dy="662" grid="1" gridSize="10" guides="1" tooltips="1" connect="1" arrows="1" fold="1" page="1" pageScale="1" pageWidth="850" pageHeight="1100" math="0" shadow="0">
      <root>
        <mxCell id="4XYBWsM5SGhsvGSJ5upX-0" />
        <mxCell id="4XYBWsM5SGhsvGSJ5upX-1" parent="4XYBWsM5SGhsvGSJ5upX-0" />
        <mxCell id="4XYBWsM5SGhsvGSJ5upX-2" value="" style="dashed=0;outlineConnect=0;html=1;align=center;labelPosition=center;verticalLabelPosition=bottom;verticalAlign=top;shape=mxgraph.webicons.twitter;fillColor=#49EAF7;gradientColor=#137BD0;fontSize=10;aspect=fixed;" vertex="1" parent="4XYBWsM5SGhsvGSJ5upX-1">
          <mxGeometry x="210" y="490" width="40" height="40" as="geometry" />
        </mxCell>
        <mxCell id="4XYBWsM5SGhsvGSJ5upX-3" value="" style="dashed=0;outlineConnect=0;html=1;align=center;labelPosition=center;verticalLabelPosition=bottom;verticalAlign=top;shape=mxgraph.webicons.facebook;fillColor=#6294E4;gradientColor=#1A2665;fontSize=10;aspect=fixed;" vertex="1" parent="4XYBWsM5SGhsvGSJ5upX-1">
          <mxGeometry x="310" y="490" width="40" height="40" as="geometry" />
        </mxCell>
        <mxCell id="4XYBWsM5SGhsvGSJ5upX-4" value="" style="shape=image;verticalLabelPosition=bottom;verticalAlign=top;imageAspect=0;aspect=fixed;image=data:image/svg+xml,PHN2ZyB4bWxucz0iaHR0cDovL3d3dy53My5vcmcvMjAwMC9zdmciIGlkPSJmNzhmNTExNS1iZTg4LTRkNDQtYjM0ZS0zZjZlYTc0MzEyNWMiIHdpZHRoPSIxOCIgaGVpZ2h0PSIxMi43NzAxMzk2OTQyMTM4NjciIHZpZXdCb3g9IjAgMi42MTc2NTQ4MDA0MTUwMzkgMTggMTIuNzcwMTM5Njk0MjEzODY3Ij48ZGVmcz48bGluZWFyR3JhZGllbnQgaWQ9ImI2YzQzYmQ5LWUzN2YtNDE5MS05M2MyLWQzYTdhODRjNTA1ZSIgeDE9IjkiIHkxPSIxOS4xMyIgeDI9IjkiIHkyPSItMC4yOSIgZ3JhZGllbnRVbml0cz0idXNlclNwYWNlT25Vc2UiPjxzdG9wIG9mZnNldD0iMCIgc3RvcC1jb2xvcj0iIzAwNzhkNCIvPjxzdG9wIG9mZnNldD0iMC4xNiIgc3RvcC1jb2xvcj0iIzEzODBkYSIvPjxzdG9wIG9mZnNldD0iMC41MyIgc3RvcC1jb2xvcj0iIzNjOTFlNSIvPjxzdG9wIG9mZnNldD0iMC44MiIgc3RvcC1jb2xvcj0iIzU1OWNlYyIvPjxzdG9wIG9mZnNldD0iMSIgc3RvcC1jb2xvcj0iIzVlYTBlZiIvPjwvbGluZWFyR3JhZGllbnQ+PC9kZWZzPjx0aXRsZT5JY29uLW1hY2hpbmVsZWFybmluZy0xNjI8L3RpdGxlPjxwYXRoIGQ9Ik0xOCwxMS4zOEE0LDQsMCwwLDAsMTQuNDksNy41LDUuMSw1LjEsMCwwLDAsOS4yNCwyLjYyLDUuMjUsNS4yNSwwLDAsMCw0LjIyLDYsNC44LDQuOCwwLDAsMCwwLDEwLjY3YTQuOSw0LjksMCwwLDAsNS4wNyw0LjcxbC40NCwwaDguMjFhLjc4Ljc4LDAsMCwwLC4yMiwwQTQuMSw0LjEsMCwwLDAsMTgsMTEuMzhaIiBmaWxsPSJ1cmwoI2I2YzQzYmQ5LWUzN2YtNDE5MS05M2MyLWQzYTdhODRjNTA1ZSkiLz48cGF0aCBkPSJNNS40MiwxMC4zOUg0LjU0YTEuMDksMS4wOSwwLDEsMCwwLC40OWguODhhLjIuMiwwLDAsMSwuMi4ydjQuM2guNDl2LTQuM0EuNjkuNjksMCwwLDAsNS40MiwxMC4zOVptLTEuOTUuODhhLjY0LjY0LDAsMSwxLC42NC0uNjRBLjY0LjY0LDAsMCwxLDMuNDcsMTEuMjdaIiBmaWxsPSIjOWNlYmZmIi8+PHBhdGggZD0iTTguOTQsMTAuNjF2LTFhLjcuNywwLDAsMC0uNy0uN0g2LjY5YS4yLjIsMCwwLDEtLjItLjJWMy40bC0uMjMuMTJMNiwzLjY2djVhLjY5LjY5LDAsMCwwLC42OS42OUg4LjI0YS4yMS4yMSwwLDAsMSwuMjEuMjF2MWExLjA4LDEuMDgsMCwwLDAtLjg1LDEuMDYsMS4wOSwxLjA5LDAsMSwwLDEuMzQtMS4wNlptLS4yNSwxLjdoMGEuNjQuNjQsMCwxLDEsLjY0LS42NEEuNjQuNjQsMCwwLDEsOC42OSwxMi4zMVoiIGZpbGw9IiNmMmYyZjIiLz48cGF0aCBkPSJNMTQuNTMsOC41YTEuMDksMS4wOSwwLDAsMC0uMjUsMi4xNXYuMmEuMjEuMjEsMCwwLDEtLjIxLjIxaC0yVjcuNTRhLjY5LjY5LDAsMCwwLS42OS0uNjlIMTAuMzVBMS4wOCwxLjA4LDAsMCwwLDkuMjksNmExLjA5LDEuMDksMCwxLDAsMS4wNiwxLjM0aDEuMDdhLjIuMiwwLDAsMSwuMi4ydjcuODRoLjQ5VjExLjU1aDJhLjcuNywwLDAsMCwuNy0uN3YtLjJhMS4wOSwxLjA5LDAsMCwwLC44NS0xLjA2aDBBMS4wOSwxLjA5LDAsMCwwLDE0LjUzLDguNVpNOS4yOSw3LjczaDBhLjY0LjY0LDAsMSwxLC42NC0uNjRBLjY0LjY0LDAsMCwxLDkuMjksNy43M1ptNS4yNCwyLjVoMGEuNjQuNjQsMCwxLDEsLjYzLS42NEEuNjQuNjQsMCwwLDEsMTQuNTMsMTAuMjNaIiBmaWxsPSIjOWNlYmZmIi8+PC9zdmc+" vertex="1" parent="4XYBWsM5SGhsvGSJ5upX-1">
          <mxGeometry x="160" y="380" width="40" height="28.89" as="geometry" />
        </mxCell>
        <mxCell id="4XYBWsM5SGhsvGSJ5upX-5" value="" style="shape=image;verticalLabelPosition=bottom;verticalAlign=top;imageAspect=0;aspect=fixed;image=data:image/svg+xml,PHN2ZyB4bWxucz0iaHR0cDovL3d3dy53My5vcmcvMjAwMC9zdmciIGlkPSJiNWI2MzhlNS0xZGU3LTQzNzgtOGY1MC03YzM3MzhlNTg3NGMiIHdpZHRoPSIxNyIgaGVpZ2h0PSIxMy4yMjMxNzIxODc4MDUxNzYiIHZpZXdCb3g9IjAuNTAwMDAwMDU5NjA0NjQ0OCAyLjM4NjY2ODQ0MzY3OTgwOTYgMTcgMTMuMjIzMTcyMTg3ODA1MTc2Ij48ZGVmcz48bGluZWFyR3JhZGllbnQgaWQ9ImUyMGFlNGNhLTgxMjgtNDYyNS1iY2M2LTg2M2JjMWJjNTFkOSIgeDE9IjUuMDUiIHkxPSIxMC41NSIgeDI9IjUuMDUiIHkyPSIxMy40OCIgZ3JhZGllbnRVbml0cz0idXNlclNwYWNlT25Vc2UiPjxzdG9wIG9mZnNldD0iMCIgc3RvcC1jb2xvcj0iIzc2YmMyZCIvPjxzdG9wIG9mZnNldD0iMSIgc3RvcC1jb2xvcj0iIzVlOTYyNCIvPjwvbGluZWFyR3JhZGllbnQ+PGxpbmVhckdyYWRpZW50IGlkPSJiNmZhODlkZS0yOWViLTQ2MmUtOTdkZS01YmRiZGFlYjA5MGUiIHgxPSIxMi44NCIgeTE9IjEwLjU3IiB4Mj0iMTIuODQiIHkyPSIxMy41IiBncmFkaWVudFVuaXRzPSJ1c2VyU3BhY2VPblVzZSI+PHN0b3Agb2Zmc2V0PSIwIiBzdG9wLWNvbG9yPSIjNzZiYzJkIi8+PHN0b3Agb2Zmc2V0PSIxIiBzdG9wLWNvbG9yPSIjNWU5NjI0Ii8+PC9saW5lYXJHcmFkaWVudD48L2RlZnM+PHRpdGxlPkljb24taW50ZWdyYXRpb24tMjA0PC90aXRsZT48Zz48cGF0aCBkPSJNMy4xOSwxNS42YTIuNDksMi40OSwwLDAsMS0xLjUzLS4zOCwxLjcsMS43LDAsMCwxLS40NS0xLjM2VjEwLjMzYzAtLjU4LS4yMy0uODktLjcxLS44OVY4LjU2Yy40OCwwLC43MS0uMzEuNzEtLjkyVjQuMTdhMS43OSwxLjc5LDAsMCwxLC40NS0xLjM5QTIuMjksMi4yOSwwLDAsMSwzLjE5LDIuNHYuODljLS41MSwwLS43OS4yNy0uNzkuODV2My40YzAsLjc4LS4yMywxLjI2LS43NCwxLjQ2YTEuNDIsMS40MiwwLDAsMSwuNzQsMS40NnYzLjM3YTEuMjUsMS4yNSwwLDAsMCwuMTcuNjguNzQuNzQsMCwwLDAsLjU4LjJsMCwuODlaIiBmaWxsPSIjOTQ5NDk0Ii8+PHBhdGggZD0iTTE0LjgxLDIuNGEyLjQ5LDIuNDksMCwwLDEsMS41My4zOCwxLjcsMS43LDAsMCwxLC40NSwxLjM2VjcuNjdjMCwuNTguMjMuODkuNzEuODl2Ljg4Yy0uNDgsMC0uNzEuMzEtLjcxLjkydjMuNDNhMS44LDEuOCwwLDAsMS0uNDUsMS40LDIuMjgsMi4yOCwwLDAsMS0xLjUzLjQxdi0uODljLjUxLDAsLjc5LS4yNy43OS0uODV2LTMuNGMwLS43OC4yMy0xLjI2Ljc0LTEuNDZhMS40MiwxLjQyLDAsMCwxLS43NC0xLjQ2VjQuMTdhMS4yNSwxLjI1LDAsMCwwLS4xNy0uNjguNzQuNzQsMCwwLDAtLjU4LS4yWiIgZmlsbD0iIzk0OTQ5NCIvPjxwYXRoIGQ9Ik05LjQxLDguMzVWNy4wOGgtLjlWOC4zNWEuMTguMTgsMCwwLDEtLjE4LjE4SDVhLjM2LjM2LDAsMCwwLS4zNi4zNnYxLjY1aC45VjkuNjNhLjE4LjE4LDAsMCwxLC4xNy0uMThoNi41NGEuMTguMTgsMCwwLDEsLjE4LjE4di45M2guODlWOC44OWEuMzYuMzYsMCwwLDAtLjM1LS4zNkg5LjU5QS4xOC4xOCwwLDAsMSw5LjQxLDguMzVaIiBmaWxsPSIjMDA1YmExIi8+PHBhdGggZD0iTTEwLjYxLDMuMjFINy4yNWEuMzguMzgsMCwwLDAtLjM4LjM3VjYuOTRhLjM3LjM3LDAsMCwwLC4zOC4zN2gzLjM2QS4zNy4zNywwLDAsMCwxMSw2Ljk0VjMuNThBLjM4LjM4LDAsMCwwLDEwLjYxLDMuMjFabS0uMzIsMy4xN2EuMjUuMjUsMCwwLDEtLjI1LjI0SDcuODFhLjI1LjI1LDAsMCwxLS4yNS0uMjRWNC4xNWEuMjUuMjUsMCwwLDEsLjI1LS4yNUgxMGEuMjUuMjUsMCwwLDEsLjI1LjI1WiIgZmlsbD0iIzAwNzhkNCIvPjxyZWN0IHg9IjMuNTgiIHk9IjEwLjU1IiB3aWR0aD0iMi45NCIgaGVpZ2h0PSIyLjk0IiByeD0iMC4yNyIgZmlsbD0idXJsKCNlMjBhZTRjYS04MTI4LTQ2MjUtYmNjNi04NjNiYzFiYzUxZDkpIi8+PHJlY3QgeD0iMTEuMzgiIHk9IjEwLjU3IiB3aWR0aD0iMi45NCIgaGVpZ2h0PSIyLjk0IiByeD0iMC4yNyIgZmlsbD0idXJsKCNiNmZhODlkZS0yOWViLTQ2MmUtOTdkZS01YmRiZGFlYjA5MGUpIi8+PC9nPjwvc3ZnPg==;fillColor=none;fontSize=10;align=left;" vertex="1" parent="4XYBWsM5SGhsvGSJ5upX-1">
          <mxGeometry x="261" y="280" width="40" height="30.59" as="geometry" />
        </mxCell>
        <mxCell id="4XYBWsM5SGhsvGSJ5upX-7" value="" style="shape=image;verticalLabelPosition=bottom;verticalAlign=top;imageAspect=0;aspect=fixed;image=data:image/svg+xml,PHN2ZyB4bWxucz0iaHR0cDovL3d3dy53My5vcmcvMjAwMC9zdmciIGlkPSJiNzBhY2YwYS0zNGI0LTRiZGYtOTAyNC03NDk2MDQzZmY5MTUiIHdpZHRoPSIxNi45Njc2MjQ2NjQzMDY2NCIgaGVpZ2h0PSIxNi45NzE1MTk0NzAyMTQ4NDQiIHZpZXdCb3g9IjAuNDk2OTEyNzQ3NjIxNTM2MjUgMC41MzE1Njk0MjEyOTEzNTEzIDE2Ljk2NzYyNDY2NDMwNjY0IDE2Ljk3MTUxOTQ3MDIxNDg0NCI+PGRlZnM+PHJhZGlhbEdyYWRpZW50IGlkPSJlMmNmODc0Ni1jOWE4LTRlZWUtODZjMi00OTUxOTgzYzYwMzIiIGN4PSIxMzQyOC44MSIgY3k9IjM1MTguODYiIHI9IjU2LjY3IiBncmFkaWVudFRyYW5zZm9ybT0idHJhbnNsYXRlKC0yMDA1LjMzIC01MTguODMpIHNjYWxlKDAuMTUpIiBncmFkaWVudFVuaXRzPSJ1c2VyU3BhY2VPblVzZSI+PHN0b3Agb2Zmc2V0PSIwLjE4IiBzdG9wLWNvbG9yPSIjNWVhMGVmIi8+PHN0b3Agb2Zmc2V0PSIxIiBzdG9wLWNvbG9yPSIjMDA3OGQ0Ii8+PC9yYWRpYWxHcmFkaWVudD48bGluZWFyR3JhZGllbnQgaWQ9ImJkZDIxM2RkLWQzMTMtNDczYy04ZmY0LTAxMzNmZDNhOTAzMyIgeDE9IjQuNCIgeTE9IjExLjQ4IiB4Mj0iNC4zNyIgeTI9IjcuNTMiIGdyYWRpZW50VW5pdHM9InVzZXJTcGFjZU9uVXNlIj48c3RvcCBvZmZzZXQ9IjAiIHN0b3AtY29sb3I9IiNjY2MiLz48c3RvcCBvZmZzZXQ9IjEiIHN0b3AtY29sb3I9IiNmY2ZjZmMiLz48L2xpbmVhckdyYWRpZW50PjxsaW5lYXJHcmFkaWVudCBpZD0iYWZjYzYzYzUtMzY0OS00NDc2LWE3NDItYmNiNTNhNTY5ZjNjIiB4MT0iMTAuMTMiIHkxPSIxNS40NSIgeDI9IjEwLjEzIiB5Mj0iMTEuOSIgZ3JhZGllbnRVbml0cz0idXNlclNwYWNlT25Vc2UiPjxzdG9wIG9mZnNldD0iMCIgc3RvcC1jb2xvcj0iI2NjYyIvPjxzdG9wIG9mZnNldD0iMSIgc3RvcC1jb2xvcj0iI2ZjZmNmYyIvPjwvbGluZWFyR3JhZGllbnQ+PGxpbmVhckdyYWRpZW50IGlkPSJiZDg3M2YwYi05OTU0LTRhYTUtYTNkZi05ZjRjNjRlODcyOWQiIHgxPSIxNC4xOCIgeTE9IjExLjE1IiB4Mj0iMTQuMTgiIHkyPSI3LjM4IiBncmFkaWVudFVuaXRzPSJ1c2VyU3BhY2VPblVzZSI+PHN0b3Agb2Zmc2V0PSIwIiBzdG9wLWNvbG9yPSIjY2NjIi8+PHN0b3Agb2Zmc2V0PSIxIiBzdG9wLWNvbG9yPSIjZmNmY2ZjIi8+PC9saW5lYXJHcmFkaWVudD48L2RlZnM+PHRpdGxlPkljb24td2ViLTQxPC90aXRsZT48cGF0aCBpZD0iZWU3NWRkMDYtMWFjYS00Zjc2LTlkMTEtZDA1YTI4NDAyMGFkIiBkPSJNMTQuMjEsMTUuNzJBOC41LDguNSwwLDAsMSwzLjc5LDIuMjhsLjA5LS4wNmE4LjUsOC41LDAsMCwxLDEwLjMzLDEzLjUiIGZpbGw9InVybCgjZTJjZjg3NDYtYzlhOC00ZWVlLTg2YzItNDk1MTk4M2M2MDMyKSIvPjxwYXRoIGQ9Ik02LjY5LDcuMjNBMTMsMTMsMCwwLDEsMTUuNiwzLjY1YTguNDcsOC40NywwLDAsMC0xLjQ5LTEuNDQsMTQuMzQsMTQuMzQsMCwwLDAtNC42OSwxLjFBMTIuNTQsMTIuNTQsMCwwLDAsNS4zNCw2LjEzLDIuNzYsMi43NiwwLDAsMSw2LjY5LDcuMjNaIiBmaWxsPSIjZmZmIiBvcGFjaXR5PSIwLjYiLz48cGF0aCBkPSJNMi40OCwxMC42NWExNy44NiwxNy44NiwwLDAsMC0uODMsMi42Miw3LjgyLDcuODIsMCwwLDAsLjYyLjkyYy4xOC4yMy4zNS40NC41NS42NUExNy45NCwxNy45NCwwLDAsMSwzLjksMTEuMzcsMi43NiwyLjc2LDAsMCwxLDIuNDgsMTAuNjVaIiBmaWxsPSIjZmZmIiBvcGFjaXR5PSIwLjYiLz48cGF0aCBkPSJNMy40Niw2LjExYTEyLDEyLDAsMCwxLS42OS0yLjk0LDguMTUsOC4xNSwwLDAsMC0xLjEsMS40NUExMi42OSwxMi42OSwwLDAsMCwyLjI0LDcsMi42OSwyLjY5LDAsMCwxLDMuNDYsNi4xMVoiIGZpbGw9IiNmMmYyZjIiIG9wYWNpdHk9IjAuNTUiLz48Y2lyY2xlIGN4PSI0LjM4IiBjeT0iOC42OCIgcj0iMi43MyIgZmlsbD0idXJsKCNiZGQyMTNkZC1kMzEzLTQ3M2MtOGZmNC0wMTMzZmQzYTkwMzMpIi8+PHBhdGggZD0iTTguMzYsMTMuNjdBMS43NywxLjc3LDAsMCwxLDguOSwxMi40YTExLjg4LDExLjg4LDAsMCwxLTIuNTMtMS44NiwyLjc0LDIuNzQsMCwwLDEtMS40OS44MywxMy4xLDEzLjEsMCwwLDAsMS40NSwxLjI4QTEyLjEyLDEyLjEyLDAsMCwwLDguMzgsMTMuOSwxLjc5LDEuNzksMCwwLDEsOC4zNiwxMy42N1oiIGZpbGw9IiNmMmYyZjIiIG9wYWNpdHk9IjAuNTUiLz48cGF0aCBkPSJNMTQuNjYsMTMuODhhMTIsMTIsMCwwLDEtMi43Ni0uMzIuNDEuNDEsMCwwLDEsMCwuMTEsMS43NSwxLjc1LDAsMCwxLS41MSwxLjI0LDEzLjY5LDEzLjY5LDAsMCwwLDMuNDIuMjRBOC4yMSw4LjIxLDAsMCwwLDE2LDEzLjgxLDExLjUsMTEuNSwwLDAsMSwxNC42NiwxMy44OFoiIGZpbGw9IiNmMmYyZjIiIG9wYWNpdHk9IjAuNTUiLz48Y2lyY2xlIGN4PSIxMC4xMyIgY3k9IjEzLjY3IiByPSIxLjc4IiBmaWxsPSJ1cmwoI2FmY2M2M2M1LTM2NDktNDQ3Ni1hNzQyLWJjYjUzYTU2OWYzYykiLz48cGF0aCBkPSJNMTIuMzIsOC45M2ExLjgzLDEuODMsMCwwLDEsLjYxLTFBMjUuNSwyNS41LDAsMCwxLDguNDcsMy43OWExNi45MSwxNi45MSwwLDAsMS0yLTIuOTIsNy42NCw3LjY0LDAsMCwwLTEuMDkuNDJBMTguMTQsMTguMTQsMCwwLDAsNy41Myw0LjQ3LDI2LjQ0LDI2LjQ0LDAsMCwwLDEyLjMyLDguOTNaIiBmaWxsPSIjZjJmMmYyIiBvcGFjaXR5PSIwLjciLz48Y2lyY2xlIGN4PSIxNC4xOCIgY3k9IjkuMjciIHI9IjEuODkiIGZpbGw9InVybCgjYmQ4NzNmMGItOTk1NC00YWE1LWEzZGYtOWY0YzY0ZTg3MjlkKSIvPjxwYXRoIGQ9Ik0xNy4zNSwxMC41NCwxNywxMC4zN2wwLDAtLjMtLjE2LS4wNiwwTDE2LjM4LDEwbC0uMDcsMEwxNiw5LjhhMS43NiwxLjc2LDAsMCwxLS42NC45MmMuMTIuMDguMjUuMTUuMzguMjJsLjA4LjA1LjM1LjE5LDAsMCwuODYuNDVoMGE4LjYzLDguNjMsMCwwLDAsLjI5LTEuMTFaIiBmaWxsPSIjZjJmMmYyIiBvcGFjaXR5PSIwLjU1Ii8+PGNpcmNsZSBjeD0iNC4zOCIgY3k9IjguNjgiIHI9IjIuNzMiIGZpbGw9InVybCgjYmRkMjEzZGQtZDMxMy00NzNjLThmZjQtMDEzM2ZkM2E5MDMzKSIvPjxjaXJjbGUgY3g9IjEwLjEzIiBjeT0iMTMuNjciIHI9IjEuNzgiIGZpbGw9InVybCgjYWZjYzYzYzUtMzY0OS00NDc2LWE3NDItYmNiNTNhNTY5ZjNjKSIvPjwvc3ZnPg==;fillColor=none;fontSize=10;align=left;" vertex="1" parent="4XYBWsM5SGhsvGSJ5upX-1">
          <mxGeometry x="261" y="59.999999999999986" width="40" height="40" as="geometry" />
        </mxCell>
        <mxCell id="4XYBWsM5SGhsvGSJ5upX-9" value="" style="shape=image;verticalLabelPosition=bottom;verticalAlign=top;imageAspect=0;aspect=fixed;image=data:image/svg+xml,PHN2ZyB4bWxucz0iaHR0cDovL3d3dy53My5vcmcvMjAwMC9zdmciIGlkPSJhYjY5MTVmOC1iZTU0LTRkNmYtOTMyYS03ZjQyOWU3NTk4M2EiIHdpZHRoPSIxNy4wMjEyNDIxNDE3MjM2MzMiIGhlaWdodD0iMTYuODAwMTgwNDM1MTgwNjY0IiB2aWV3Qm94PSIwLjUwMDE5MjA0NjE2NTQ2NjMgMC41OTk4MTg0NjgwOTM4NzIxIDE3LjAyMTI0MjE0MTcyMzYzMyAxNi44MDAxODA0MzUxODA2NjQiPjxkZWZzPjxsaW5lYXJHcmFkaWVudCBpZD0iYjhlZjFlYmYtNDE5ZC00MDk3LWE5YmMtZTJmYmI2OGQ5YzNiIiB4MT0iNS43MSIgeTE9IjcuMSIgeDI9IjUuODIiIHkyPSIxNy40OCIgZ3JhZGllbnRVbml0cz0idXNlclNwYWNlT25Vc2UiPjxzdG9wIG9mZnNldD0iMCIgc3RvcC1jb2xvcj0iIzMyZDRmNSIvPjxzdG9wIG9mZnNldD0iMC4zMiIgc3RvcC1jb2xvcj0iIzMxZDFmMyIvPjxzdG9wIG9mZnNldD0iMC41MyIgc3RvcC1jb2xvcj0iIzJlYzllYiIvPjxzdG9wIG9mZnNldD0iMC43IiBzdG9wLWNvbG9yPSIjMjliYWRlIi8+PHN0b3Agb2Zmc2V0PSIwLjg2IiBzdG9wLWNvbG9yPSIjMjJhNWNiIi8+PHN0b3Agb2Zmc2V0PSIxIiBzdG9wLWNvbG9yPSIjMTk4YWIzIi8+PHN0b3Agb2Zmc2V0PSIxIiBzdG9wLWNvbG9yPSIjMTk4YWIzIi8+PC9saW5lYXJHcmFkaWVudD48L2RlZnM+PHRpdGxlPkljb24tbWFjaGluZWxlYXJuaW5nLTE2NzwvdGl0bGU+PHBhdGggZD0iTTYsLjZIMTcuMTJhLjM3LjM3LDAsMCwxLC4zOC4zNFY5LjUzYS4zNi4zNiwwLDAsMS0uMzguMzRINmEuMzYuMzYsMCwwLDEtLjM4LS4zNFYuOTRBLjM3LjM3LDAsMCwxLDYsLjZaIiBmaWxsPSIjZTZlNmU2Ii8+PHBhdGggZD0iTTUuOTQuNmgxMS4yYS4zNS4zNSwwLDAsMSwuMzYuMzJoMHYxLjNINS41OFYuOTJBLjM1LjM1LDAsMCwxLDUuOTQuNloiIGZpbGw9IiM1ZWEwZWYiLz48cmVjdCB4PSI1LjU4IiB5PSIyLjIyIiB3aWR0aD0iMy45OCIgaGVpZ2h0PSIzLjgzIiBmaWxsPSIjODNiOWY5Ii8+PHJlY3QgeD0iOS41NCIgeT0iMi4yMiIgd2lkdGg9IjMuOTgiIGhlaWdodD0iMy44MyIgZmlsbD0iIzAwNzhkNCIvPjxyZWN0IHg9IjEzLjUyIiB5PSIyLjIyIiB3aWR0aD0iMy45OCIgaGVpZ2h0PSIzLjgzIiBmaWxsPSIjODNiOWY5Ii8+PHBhdGggZD0iTTE0LjA5LDZIMTcuNWEwLDAsMCwwLDEsMCwwVjkuODdhMCwwLDAsMCwxLDAsMGgtNGEwLDAsMCwwLDEsMCwwVjYuNjFBLjU3LjU3LDAsMCwxLDE0LjA5LDZaIiB0cmFuc2Zvcm09InRyYW5zbGF0ZSgzMS4wMiAxNS45MSkgcm90YXRlKC0xODApIiBmaWxsPSIjMDA3OGQ0Ii8+PHJlY3QgeD0iOS41NiIgeT0iNi4wNCIgd2lkdGg9IjMuOTgiIGhlaWdodD0iMy44MyIgdHJhbnNmb3JtPSJ0cmFuc2xhdGUoMjMuMTEgMTUuOTEpIHJvdGF0ZSgtMTgwKSIgZmlsbD0iIzgzYjlmOSIvPjxyZWN0IHg9IjUuNTgiIHk9IjYuMDQiIHdpZHRoPSIzLjk4IiBoZWlnaHQ9IjMuODMiIHRyYW5zZm9ybT0idHJhbnNsYXRlKDE1LjE1IDE1LjkxKSByb3RhdGUoLTE4MCkiIGZpbGw9IiMwMDc4ZDQiLz48cGF0aCBkPSJNMTAuNzMsMTcuNEguODljLS4zMSwwLS41LS41LS4zMi0uNzZsMy4zOS01QS4zNC4zNCwwLDAsMCw0LDExLjQ3VjguMkEuMi4yLDAsMCwwLDMuODQsOEgzLjY1YS4zOS4zOSwwLDAsMS0uMzktLjM5VjcuNDRhLjM5LjM5LDAsMCwxLC4zOS0uMzhIOGEuMzguMzgsMCwwLDEsLjM5LjM4di4xOEEuMzguMzgsMCwwLDEsOCw4SDcuNzlhLjIuMiwwLDAsMC0uMi4xOXYzLjI4YS40MS40MSwwLDAsMCwuMDcuMjJsMy40LDQuOTRDMTEuMjMsMTYuOSwxMS4wNSwxNy40LDEwLjczLDE3LjRaIiBmaWxsPSJ1cmwoI2I4ZWYxZWJmLTQxOWQtNDA5Ny1hOWJjLWUyZmJiNjhkOWMzYikiLz48cGF0aCBkPSJNMi4xOSwxNmwyLjQ2LTMuNTlhLjg2Ljg2LDAsMCwwLC4xNi0uNTFWMTAuNGEuMjkuMjksMCwwLDEsLjI5LS4yOUg2LjVhLjI4LjI4LDAsMCwxLC4yOC4yOVYxMmEuNi42LDAsMCwwLC4xMS4zNEw5LjQxLDE2YS4yMS4yMSwwLDAsMS0uMTguMzRIMi4zNkEuMjEuMjEsMCwwLDEsMi4xOSwxNloiIGZpbGw9IiNmZmYiLz48L3N2Zz4=" vertex="1" parent="4XYBWsM5SGhsvGSJ5upX-1">
          <mxGeometry x="380" y="374.44" width="40" height="40" as="geometry" />
        </mxCell>
        <mxCell id="4XYBWsM5SGhsvGSJ5upX-10" value="" style="shape=image;verticalLabelPosition=bottom;verticalAlign=top;imageAspect=0;aspect=fixed;image=data:image/svg+xml,PHN2ZyB4bWxucz0iaHR0cDovL3d3dy53My5vcmcvMjAwMC9zdmciIGlkPSJmNzhlZjM3Yi1mZGU0LTQ2MWMtOTRlMi1kY2NmZjMyZGQ1ZDciIHdpZHRoPSIxNyIgaGVpZ2h0PSIxNS42NTYwNzM1NzAyNTE0NjUiIHZpZXdCb3g9IjAuNSAxLjE3ODkyNzMwMjM2MDUzNDcgMTcgMTUuNjU2MDczNTcwMjUxNDY1Ij48ZGVmcz48bGluZWFyR3JhZGllbnQgaWQ9ImJmOGE5NTgzLWFhZTktNDhmZi04N2Q4LWZiOGY0NGU3ZDZiZCIgeDE9IjkiIHkxPSIxNi44MiIgeDI9IjkiIHkyPSIxLjE4IiBncmFkaWVudFVuaXRzPSJ1c2VyU3BhY2VPblVzZSI+PHN0b3Agb2Zmc2V0PSIwIiBzdG9wLWNvbG9yPSIjMTk4YWIzIi8+PHN0b3Agb2Zmc2V0PSIwLjA5IiBzdG9wLWNvbG9yPSIjMWY5ZGM0Ii8+PHN0b3Agb2Zmc2V0PSIwLjI0IiBzdG9wLWNvbG9yPSIjMjhiNWQ5Ii8+PHN0b3Agb2Zmc2V0PSIwLjQiIHN0b3AtY29sb3I9IiMyZGM2ZTkiLz48c3RvcCBvZmZzZXQ9IjAuNTciIHN0b3AtY29sb3I9IiMzMWQxZjIiLz48c3RvcCBvZmZzZXQ9IjAuNzgiIHN0b3AtY29sb3I9IiMzMmQ0ZjUiLz48L2xpbmVhckdyYWRpZW50PjxsaW5lYXJHcmFkaWVudCBpZD0iZjliMWJiOGMtNzI4ZS00YWJmLWJjZTUtNmMxMWFjMTcwYzViIiB4MT0iOC4zNiIgeTE9IjExLjM1IiB4Mj0iOC4zNiIgeTI9IjE0LjQ2IiBncmFkaWVudFVuaXRzPSJ1c2VyU3BhY2VPblVzZSI+PHN0b3Agb2Zmc2V0PSIwIiBzdG9wLWNvbG9yPSIjYzY5YWViIi8+PHN0b3Agb2Zmc2V0PSIxIiBzdG9wLWNvbG9yPSIjNmY0YmIyIi8+PC9saW5lYXJHcmFkaWVudD48L2RlZnM+PHRpdGxlPkljb24td2ViLTQyPC90aXRsZT48cGF0aCBkPSJNMTQuMTgsNS44OUE0Ljg1LDQuODUsMCwwLDAsOS4yMywxLjE4LDUsNSwwLDAsMCw0LjQ4LDQuNDcsNC42MSw0LjYxLDAsMCwwLC41LDksNC42Nyw0LjY3LDAsMCwwLDUuMjksMTMuNWEzLDMsMCwwLDAsLjQyLDBoMS4yYTEuNDcsMS40NywwLDAsMS0uMTEtLjU2djBBMS41MSwxLjUxLDAsMCwxLDcsMTIuMjFINS42bC0uMzEsMEEzLjQxLDMuNDEsMCwwLDEsMS43Nyw5LDMuMzMsMy4zMywwLDAsMSw0LjY4LDUuNzNsLjc2LS4xMi4yNS0uNzNBMy43MywzLjczLDAsMCwxLDkuMjMsMi40NSwzLjYsMy42LDAsMCwxLDEyLjkxLDUuOVY3TDE0LDcuMTVhMi41OSwyLjU5LDAsMCwxLDIuMjYsMi40OSwyLjYzLDIuNjMsMCwwLDEtMi42MiwyLjU0aC0uMTVsLS4wOCwwaC0xQTMuOTIsMy45MiwwLDAsMCw4LjU0LDlhLjY0LjY0LDAsMSwwLDAsMS4yNywyLjY1LDIuNjUsMCwwLDEsMCw1LjI5LjY0LjY0LDAsMSwwLDAsMS4yNywzLjkyLDMuOTIsMCwwLDAsMy44Ny0zLjM0aDEuMDVhLjY0LjY0LDAsMCwwLC4yLDBBMy45MSwzLjkxLDAsMCwwLDE3LjUsOS42NCwzLjg2LDMuODYsMCwwLDAsMTQuMTgsNS44OVoiIGZpbGw9InVybCgjYmY4YTk1ODMtYWFlOS00OGZmLTg3ZDgtZmI4ZjQ0ZTdkNmJkKSIvPjxyZWN0IHg9IjYuOCIgeT0iMTEuMzUiIHdpZHRoPSIzLjEyIiBoZWlnaHQ9IjMuMTIiIHJ4PSIxLjU0IiBmaWxsPSJ1cmwoI2Y5YjFiYjhjLTcyOGUtNGFiZi1iY2U1LTZjMTFhYzE3MGM1YikiLz48L3N2Zz4=;fillColor=none;fontSize=10;align=left;" vertex="1" parent="4XYBWsM5SGhsvGSJ5upX-1">
          <mxGeometry x="265.7" y="174.16" width="40" height="37.65" as="geometry" />
        </mxCell>
        <mxCell id="1vPSZ7zC_fCA-AUU2ljk-0" value="Enriched Applications" style="text;html=1;resizable=0;autosize=1;align=left;verticalAlign=middle;points=[];fillColor=none;strokeColor=none;rounded=0;fontSize=10;" vertex="1" parent="4XYBWsM5SGhsvGSJ5upX-1">
          <mxGeometry x="131" y="70" width="110" height="20" as="geometry" />
        </mxCell>
        <mxCell id="1vPSZ7zC_fCA-AUU2ljk-1" value="API Management" style="text;html=1;resizable=0;autosize=1;align=left;verticalAlign=middle;points=[];fillColor=none;strokeColor=none;rounded=0;fontSize=10;" vertex="1" parent="4XYBWsM5SGhsvGSJ5upX-1">
          <mxGeometry x="135" y="182.98999999999998" width="90" height="20" as="geometry" />
        </mxCell>
        <mxCell id="1vPSZ7zC_fCA-AUU2ljk-2" value="Cognitive Services&lt;br&gt;Machine Learning" style="text;html=1;resizable=0;autosize=1;align=left;verticalAlign=middle;points=[];fillColor=none;strokeColor=none;rounded=0;fontSize=10;" vertex="1" parent="4XYBWsM5SGhsvGSJ5upX-1">
          <mxGeometry x="30" y="383.89" width="100" height="30" as="geometry" />
        </mxCell>
        <mxCell id="1vPSZ7zC_fCA-AUU2ljk-3" value="Logic Apps" style="text;html=1;resizable=0;autosize=1;align=left;verticalAlign=middle;points=[];fillColor=none;strokeColor=none;rounded=0;fontSize=10;" vertex="1" parent="4XYBWsM5SGhsvGSJ5upX-1">
          <mxGeometry x="120" y="285.28999999999996" width="60" height="20" as="geometry" />
        </mxCell>
        <mxCell id="1vPSZ7zC_fCA-AUU2ljk-4" value="Public Data" style="text;html=1;resizable=0;autosize=1;align=left;verticalAlign=middle;points=[];fillColor=none;strokeColor=none;rounded=0;fontSize=10;" vertex="1" parent="4XYBWsM5SGhsvGSJ5upX-1">
          <mxGeometry x="75" y="500" width="70" height="20" as="geometry" />
        </mxCell>
      </root>
    </mxGraphModel>
  </diagram>
</mxfile>
